<svg xmlns="http://www.w3.org/2000/svg" viewBox="0 0 131.71 131.71"><title>9</title><g id="Layer_2" data-name="Layer 2"><g id="Layer_1-2" data-name="Layer 1"><path d="M128.52,1.59a1.6,1.6,0,0,1,3.19,0V65.85a1.6,1.6,0,1,1-3.19,0Z"/><path d="M1.59,67.45a1.6,1.6,0,0,1,0-3.19H130.11a1.6,1.6,0,1,1,0,3.19Z"/><path d="M129.23,64.53A1.59,1.59,0,0,1,131,67.18L34.61,131.44a1.59,1.59,0,0,1-1.77-2.65Z"/><path d="M1.59,131.71a1.6,1.6,0,0,1,0-3.19H33.72a1.6,1.6,0,1,1,0,3.19Z"/><path d="M2.48,67.18A1.59,1.59,0,0,1,.71,64.53L97.1.27a1.59,1.59,0,0,1,1.77,2.65Z"/><path d="M98,3.19A1.6,1.6,0,0,1,98,0h32.13a1.6,1.6,0,1,1,0,3.19Z"/></g></g></svg>