<svg xmlns="http://www.w3.org/2000/svg" viewBox="0 0 130.91 130.91"><title>Asset 15</title><g id="Layer_2" data-name="Layer 2"><g id="Layer_1-2" data-name="Layer 1"><path d="M0,1.2a1.2,1.2,0,1,1,2.39,0V129.72a1.2,1.2,0,0,1-2.39,0Z"/><path d="M32.13,1.2a1.2,1.2,0,1,1,2.39,0V129.72a1.2,1.2,0,0,1-2.39,0Z"/><path d="M64.26,1.2a1.2,1.2,0,1,1,2.39,0V129.72a1.2,1.2,0,0,1-2.39,0Z"/><path d="M128.52,1.2a1.2,1.2,0,1,1,2.39,0V129.72a1.2,1.2,0,0,1-2.39,0Z"/><path d="M96.39,1.2a1.2,1.2,0,1,1,2.39,0V129.72a1.2,1.2,0,0,1-2.39,0Z"/><path d="M1.2,34.52a1.2,1.2,0,1,1,0-2.39H129.72a1.2,1.2,0,0,1,0,2.39Z"/><path d="M1.2,66.65a1.2,1.2,0,1,1,0-2.39H129.72a1.2,1.2,0,0,1,0,2.39Z"/><path d="M1.2,98.78a1.2,1.2,0,1,1,0-2.39H129.72a1.2,1.2,0,0,1,0,2.39Z"/><path d="M1.2,130.91a1.2,1.2,0,1,1,0-2.39H129.72a1.2,1.2,0,0,1,0,2.39Z"/><path d="M1.2,2.39A1.2,1.2,0,1,1,1.2,0H129.72a1.2,1.2,0,0,1,0,2.39Z"/><path d="M32.66,2.19A1.2,1.2,0,0,1,34,.2l96.39,64.26a1.2,1.2,0,1,1-1.33,2Z"/><path d="M.53,2.19A1.2,1.2,0,0,1,1.86.2L98.25,64.46a1.2,1.2,0,1,1-1.33,2Z"/><path d="M.53,34.32a1.2,1.2,0,1,1,1.33-2L98.25,96.59a1.2,1.2,0,0,1-1.33,2Z"/><path d="M32.66,34.32a1.2,1.2,0,0,1,1.33-2l96.39,64.26a1.2,1.2,0,1,1-1.33,2Z"/><path d="M.53,66.45a1.2,1.2,0,0,1,1.33-2l96.39,64.26a1.2,1.2,0,0,1-1.33,2Z"/><path d="M32.66,66.45a1.2,1.2,0,1,1,1.33-2l96.39,64.26a1.2,1.2,0,1,1-1.33,2Z"/><path d="M34,66.45a1.2,1.2,0,0,1-1.33-2L129.05.2a1.2,1.2,0,1,1,1.33,2Z"/><path d="M1.86,66.45a1.2,1.2,0,1,1-1.33-2L96.92.2a1.2,1.2,0,1,1,1.33,2Z"/><path d="M96.92,32.33a1.2,1.2,0,1,1,1.33,2L1.86,98.58a1.2,1.2,0,1,1-1.33-2Z"/><path d="M129.05,32.33a1.2,1.2,0,1,1,1.33,2L34,98.58a1.2,1.2,0,1,1-1.33-2Z"/><path d="M1.86,130.71a1.2,1.2,0,1,1-1.33-2L96.92,64.46a1.2,1.2,0,1,1,1.33,2Z"/><path d="M34,130.71a1.2,1.2,0,1,1-1.33-2l96.39-64.26a1.2,1.2,0,1,1,1.33,2Z"/></g></g></svg>