<svg xmlns="http://www.w3.org/2000/svg" viewBox="0 0 131.71 131.71"><title>Asset 13</title><g id="Layer_2" data-name="Layer 2"><g id="Layer_1-2" data-name="Layer 1"><path d="M129.23,32.4A1.59,1.59,0,0,1,131,35.05L34.61,99.31a1.59,1.59,0,0,1-1.77-2.65Z"/><path d="M32.6,99.11a1.59,1.59,0,0,1,2.25-2.25,1.59,1.59,0,0,1-2.25,2.25"/><path d="M33.72,131.71a1.6,1.6,0,0,1,0-3.19H65.85a1.6,1.6,0,1,1,0,3.19Z"/><path d="M131.71,33.72a1.6,1.6,0,1,1-3.19,0V1.59a1.6,1.6,0,0,1,3.19,0Z"/><path d="M1.59,3.19A1.6,1.6,0,0,1,1.59,0H130.11a1.6,1.6,0,1,1,0,3.19Z"/></g></g></svg>