<svg xmlns="http://www.w3.org/2000/svg" viewBox="0 0 129.72 129.72"><title>Q</title><g id="Layer_2" data-name="Layer 2"><g id="Layer_1-2" data-name="Layer 1"><path d="M32.4,65.36a.6.6,0,1,1,.66-1l96.39,64.26a.6.6,0,0,1-.66,1Z"/><path d="M32.4,1.1a.6.6,0,0,1,.66-1l96.39,64.26a.6.6,0,1,1-.66,1Z"/><path d="M.6,1.2A.6.6,0,0,1,.6,0H32.73a.6.6,0,1,1,0,1.2Z"/><path d="M0,.6A.6.6,0,0,1,1.2.6V32.73a.6.6,0,1,1-1.2,0Z"/><path d="M129.72,97a.6.6,0,1,1-1.2,0V64.86a.6.6,0,0,1,1.2,0Z"/><path d="M0,.6A.6.6,0,0,1,1.2.6V97A.6.6,0,0,1,0,97Z"/><path d="M.6,97.59a.6.6,0,1,1,0-1.2H129.12a.6.6,0,1,1,0,1.2Z"/></g></g></svg>