<svg xmlns="http://www.w3.org/2000/svg" viewBox="0 0 129.72 129.72"><title>R</title><g id="Layer_2" data-name="Layer 2"><g id="Layer_1-2" data-name="Layer 1"><path d="M0,.6A.6.6,0,0,1,1.2.6V129.12a.6.6,0,0,1-1.2,0Z"/><path d="M.6,1.2A.6.6,0,0,1,.6,0H129.12a.6.6,0,0,1,0,1.2Z"/><path d="M128.52.6a.6.6,0,1,1,1.2,0V32.73a.6.6,0,0,1-1.2,0Z"/><path d="M.6,33.33a.6.6,0,1,1,0-1.2H129.12a.6.6,0,1,1,0,1.2Z"/><path d="M32.4,33.23a.6.6,0,0,1,.66-1l96.39,64.26a.59.59,0,0,1,.16.83.58.58,0,0,1-.82.16Z"/><path d="M128.52,97a.6.6,0,0,1,1.2,0v32.13a.6.6,0,0,1-1.2,0Z"/></g></g></svg>