<svg xmlns="http://www.w3.org/2000/svg" viewBox="0 0 129.72 129.72"><title>S</title><g id="Layer_2" data-name="Layer 2"><g id="Layer_1-2" data-name="Layer 1"><path d="M.6,1.2A.6.6,0,0,1,.6,0H129.12a.6.6,0,0,1,0,1.2Z"/><path d="M0,.6A.6.6,0,0,1,1.2.6V32.73a.6.6,0,1,1-1.2,0Z"/><path d="M128.52,97a.6.6,0,0,1,1.2,0v32.13a.6.6,0,0,1-1.2,0Z"/><path d="M.6,129.72a.6.6,0,0,1,0-1.2H129.12a.6.6,0,0,1,0,1.2Z"/><path d="M129.45,96.49a.6.6,0,0,1-.66,1L32.4,33.23a.6.6,0,0,1,.66-1Z"/><path d="M.6,33.33a.6.6,0,1,1,0-1.2H32.73a.6.6,0,0,1,0,1.2Z"/></g></g></svg>