<svg xmlns="http://www.w3.org/2000/svg" viewBox="0 0 129.72 129.72"><title>V</title><g id="Layer_2" data-name="Layer 2"><g id="Layer_1-2" data-name="Layer 1"><path d="M0,.6A.6.6,0,0,1,1.2.6V64.86a.6.6,0,0,1-1.2,0Z"/><path d="M128.52.6a.6.6,0,1,1,1.2,0V64.86a.6.6,0,0,1-1.2,0Z"/><path d="M.27,65.35a.59.59,0,0,1-.17-.82.6.6,0,0,1,.83-.17l96.39,64.26a.61.61,0,0,1,.17.83.6.6,0,0,1-.83.16Z"/><path d="M97,129.72a.6.6,0,0,1,0-1.2h32.13a.6.6,0,0,1,0,1.2Z"/><path d="M129.72,129.12a.6.6,0,0,1-1.2,0V64.86a.6.6,0,0,1,1.2,0Z"/></g></g></svg>