<svg xmlns="http://www.w3.org/2000/svg" viewBox="0 0 129.72 129.72"><title>W</title><g id="Layer_2" data-name="Layer 2"><g id="Layer_1-2" data-name="Layer 1"><path d="M0,.6A.6.6,0,0,1,1.2.6V64.86a.6.6,0,0,1-1.2,0Z"/><path d="M0,.6A.6.6,0,0,1,1.2.6V129.12a.6.6,0,0,1-1.2,0Z"/><path d="M.93,129.61a.59.59,0,1,1-.66-1L96.66,64.36a.59.59,0,1,1,.66,1Z"/><path d="M32.4,65.35a.59.59,0,0,1-.17-.82.6.6,0,0,1,.83-.17l96.39,64.26a.61.61,0,0,1,.17.83.6.6,0,0,1-.83.16Z"/><path d="M129.72,129.12a.6.6,0,0,1-1.2,0V.6a.6.6,0,1,1,1.2,0Z"/></g></g></svg>