<svg xmlns="http://www.w3.org/2000/svg" viewBox="0 0 129.72 129.72"><title>X</title><g id="Layer_2" data-name="Layer 2"><g id="Layer_1-2" data-name="Layer 1"><path d="M.93,65.36a.61.61,0,0,1-.83-.17.6.6,0,0,1,.17-.83L96.66.1a.6.6,0,0,1,.83.17.61.61,0,0,1-.17.83Z"/><path d="M32.4,1.1a.6.6,0,0,1,.66-1l96.39,64.26a.6.6,0,1,1-.66,1Z"/><path d="M97,1.2A.6.6,0,0,1,97,0h32.13a.6.6,0,0,1,0,1.2Z"/><path d="M32.73,0a.6.6,0,1,1,0,1.2H.6A.6.6,0,0,1,.6,0Z"/><path d="M0,97a.6.6,0,0,1,1.2,0v32.13a.6.6,0,0,1-1.2,0Z"/><path d="M128.52,97a.6.6,0,0,1,1.2,0v32.13a.6.6,0,0,1-1.2,0Z"/><path d="M0,64.86a.6.6,0,0,1,1.2,0V97A.6.6,0,0,1,0,97Z"/><path d="M128.52,64.86a.6.6,0,0,1,1.2,0V97a.6.6,0,1,1-1.2,0Z"/></g></g></svg>