<svg xmlns="http://www.w3.org/2000/svg" viewBox="0 0 129.72 129.72"><title>Z</title><g id="Layer_2" data-name="Layer 2"><g id="Layer_1-2" data-name="Layer 1"><path d="M.6,129.72a.6.6,0,0,1,0-1.2H129.12a.6.6,0,0,1,0,1.2Z"/><path d="M.6,1.2A.6.6,0,0,1,.6,0H97a.6.6,0,0,1,0,1.2Z"/><path d="M97,1.2A.6.6,0,0,1,97,0h32.13a.6.6,0,0,1,0,1.2Z"/><path d="M96.66,32.23a.6.6,0,0,1,.83.17.61.61,0,0,1-.17.83L.93,97.48a.59.59,0,1,1-.66-1Z"/><path d="M0,97a.6.6,0,0,1,1.2,0v32.13a.6.6,0,0,1-1.2,0Z"/><path d="M97,33.33a.6.6,0,1,1,0-1.2h32.13a.6.6,0,1,1,0,1.2Z"/><path d="M129.72,32.73a.6.6,0,0,1-1.2,0V.6a.6.6,0,1,1,1.2,0Z"/></g></g></svg>